<svg width="48" height="48" viewBox="0 0 48 48" xmlns="http://www.w3.org/2000/svg">
    <path
            d="M24 8C20 8 17 11 17 15C17 16 17 17 18 18L14 38L20 36L22 42L24 40L26 42L28 36L34 38L30 18C31 17 31 16 31 15C31 11 28 8 24 8Z"
            fill="#000"
            stroke="#fff"
            stroke-width="2"
    />
    <circle cx="21" cy="14" r="1.5" fill="#fff"/>
    <circle cx="27" cy="14" r="1.5" fill="#fff"/>
    <path
            d="M20 8L16 6M28 8L32 6"
            stroke="#fff"
            stroke-width="2"
            stroke-linecap="round"
    />
    <path
            d="M24 16L26 18"
            stroke="#fff"
            stroke-width="1.5"
            stroke-linecap="round"
    />
</svg>
